<?xml version="1.0" encoding="utf-8"?>
<svg version="1.1" id="Layer_1" xmlns="http://www.w3.org/2000/svg" xmlns:xlink="http://www.w3.org/1999/xlink"
	 viewBox="0 0 320 320" style="enable-background:new 0 0 320 320;" xml:space="preserve">
<style type="text/css">
	.st0{fill:#fff;}
</style>
<g>
	<path class="st0" d="M283.7,112.9L220.5,176c-2.6,2.6-7,0.7-7-2.9v-23c0-4.3,1.7-8.5,4.8-11.6L315,41.9c3.2-3.2,3.2-8.4,0-11.6
		l-15.5-15.5c-3.2-3.2-8.4-3.2-11.6,0L180.1,122.7c-3.1,3.1-4.8,7.2-4.8,11.6v165.1c0,4.5,3.7,8.2,8.2,8.2h21.9
		c4.5,0,8.2-3.7,8.2-8.2v-55.5c0-4.3,1.7-8.5,4.8-11.6l92.4-92.4c3.2-3.2,3.2-8.4,0-11.6l-15.5-15.5
		C292,109.7,286.9,109.7,283.7,112.9L283.7,112.9z"/>
	<path class="st0" d="M20.5,14.8L5,30.3c-3.2,3.2-3.2,8.4,0,11.6l96.7,96.7c3.1,3.1,4.8,7.2,4.8,11.6v23c0,3.6-4.4,5.5-7,2.9
		l-63.1-63.1c-3.2-3.2-8.4-3.2-11.6,0L9.3,128.3c-3.2,3.2-3.2,8.4,0,11.6l92.4,92.4c3.1,3.1,4.8,7.2,4.8,11.6v55.5
		c0,4.5,3.7,8.2,8.2,8.2h21.9c4.5,0,8.2-3.7,8.2-8.2V134.3c0-4.3-1.7-8.5-4.8-11.6L32,14.8C28.8,11.6,23.7,11.6,20.5,14.8z"/>
</g>
</svg>
